<?xml version="1.0" encoding="utf-8" ?>
<svg xmlns="http://www.w3.org/2000/svg" xmlns:xlink="http://www.w3.org/1999/xlink" width="1002" height="1002">
	<path fill="white" transform="matrix(1.95703 0 0 1.95703 0 -7.62939e-06)" d="M0 0L0 512L512 512L512 0L0 0Z"/>
	<path fill="#A70224" transform="matrix(1.95703 0 0 1.95703 0 -7.62939e-06)" d="M128.294 235.721C127.528 235.788 126.691 235.807 125.93 235.694C119.809 234.791 117.201 226.972 120.881 222.279C122.301 220.468 124.225 219.286 126.517 219.016C128.6 218.863 130.636 219.414 132.311 220.675C138.264 225.151 135.886 234.759 128.294 235.721Z"/>
	<path fill="#A70224" transform="matrix(1.95703 0 0 1.95703 0 -7.62939e-06)" d="M146.522 258.826C146.081 257.846 146.091 257.557 144.826 258.007L141.3 263.377L136.258 271.828C134.924 274.182 133.538 276.556 132.395 279.009L129.021 278.222C128.667 278.138 128.375 278.186 128.203 277.844L123.036 267.222C122.284 265.798 121.569 264.378 120.715 263.01L119.193 264.417C119.595 265.081 120.103 265.684 120.519 266.343C123.976 271.824 123.522 279.273 119.849 284.527C112.451 295.11 96.55 293.076 91.6212 281.23C87.7552 271.939 92.9113 261.103 102.898 258.634C107.563 257.481 110.501 258.481 114.586 260.303L118.956 255.28C118.889 254.598 118.919 253.889 118.92 253.203L118.934 242.079C119.054 239.021 121.408 236.803 124.42 236.684L128.783 236.704C131.675 236.705 132.858 236.987 135.69 237.804L145.603 240.528C147.575 241.069 149.528 241.673 151.532 242.088L150.911 248.473L146.528 247.449L134.321 244.129C134.023 244.042 133.658 244.012 133.384 243.882L133.349 250.371L149.767 250.46C149.887 250.466 150.338 250.444 150.424 250.493C150.451 250.508 151.238 252.618 151.355 252.924L153.438 258.126C153.551 258.384 153.558 258.329 153.816 258.297L154.612 258.213C168.249 257.175 176.922 272.582 169.396 283.995C161.668 295.714 144.076 293.025 140.015 279.341C137.878 272.142 140.891 264.247 147.282 260.235L146.522 258.826ZM133.639 258.401L125.399 258.422L129.996 267.101L130.669 268.527C131.776 267.105 132.67 265.449 133.581 263.895L136.685 258.852C136.78 258.69 136.808 258.54 136.948 258.405L133.639 258.401ZM106.355 264.412C103.528 264.615 100.99 265.694 99.1192 267.854C93.739 274.067 97.0915 283.845 105.218 285.066C109.668 285.735 114.047 283.31 115.82 279.126C117.012 276.059 117.139 272.285 115.087 269.532L108.056 277.029L103.014 273.186C103.525 272.749 103.982 272.207 104.423 271.7L110.48 265.086C109.178 264.718 107.721 264.295 106.355 264.412ZM156.064 264.382C156.3 265.134 156.609 265.867 156.894 266.602L158.285 270.135C158.761 271.316 159.167 272.586 159.774 273.704L154.455 276.709C154.064 276.037 153.751 275.31 153.437 274.6L149.842 265.93C149.311 266.437 148.756 266.938 148.272 267.49C145.364 270.805 144.66 275.546 146.617 279.485C150.934 287.953 162.787 286.469 165.529 277.926C167.563 271.59 162.752 264.487 156.064 264.382Z"/>
	<path fill="#FF6E6E" transform="matrix(1.95703 0 0 1.95703 0 -7.62939e-06)" d="M183.272 277.57L183.272 234.054L193.264 234.054C195.234 234.054 196.944 234.269 198.395 234.698C199.846 235.128 201.054 235.791 202.021 236.686C202.988 237.582 203.705 238.719 204.17 240.098C204.636 241.477 204.869 243.097 204.869 244.96C204.869 246.75 204.645 248.3 204.197 249.607C203.75 250.914 203.069 251.944 202.156 252.696C201.242 253.448 200.069 253.932 198.637 254.147C200.392 254.54 201.806 255.212 202.881 256.161C203.955 257.11 204.752 258.328 205.272 259.814C205.791 261.301 206.051 263.083 206.051 265.16C206.051 267.022 205.836 268.724 205.406 270.264C204.976 271.804 204.305 273.111 203.391 274.186C202.478 275.26 201.314 276.093 199.899 276.684C198.485 277.275 196.81 277.57 194.876 277.57L183.272 277.57ZM189.342 273.219L193.426 273.219C196.148 273.219 197.965 272.583 198.879 271.311C199.792 270.04 200.248 267.989 200.248 265.16C200.248 263.333 200.007 261.802 199.523 260.567C199.04 259.331 198.27 258.4 197.213 257.773C196.156 257.146 194.733 256.833 192.942 256.833L189.342 256.833L189.342 273.219ZM189.342 252.212L192.942 252.212C194.661 252.212 196.004 251.971 196.971 251.487C197.938 251.004 198.619 250.225 199.013 249.15C199.407 248.076 199.604 246.679 199.604 244.96C199.604 242.954 199.299 241.503 198.69 240.608C198.082 239.713 197.132 239.149 195.843 238.916C194.554 238.683 192.87 238.567 190.793 238.567L189.342 238.567L189.342 252.212ZM211.316 277.57L211.316 246.518L217.064 246.518L217.064 277.57L211.316 277.57ZM211.316 241.897L211.316 235.88L217.064 235.88L217.064 241.897L211.316 241.897ZM223.35 277.516L223.35 234L229.098 234L229.098 259.949L237.479 246.518L243.496 246.518L236.19 258.659L243.281 277.57L237.533 277.57L231.731 261.668L229.098 265.643L229.098 277.516L223.35 277.516ZM254.563 278C252.128 278 250.248 277.525 248.922 276.576C247.597 275.627 246.675 274.23 246.156 272.386C245.636 270.541 245.377 268.276 245.377 265.59L245.377 258.498C245.377 255.74 245.645 253.448 246.183 251.621C246.72 249.795 247.66 248.416 249.003 247.485C250.346 246.554 252.2 246.088 254.563 246.088C257.178 246.088 259.103 246.625 260.339 247.7C261.574 248.774 262.389 250.323 262.783 252.347C263.177 254.37 263.374 256.797 263.374 259.626L263.374 262.151L251.125 262.151L251.125 268.383C251.125 269.637 251.242 270.658 251.474 271.446C251.707 272.234 252.083 272.816 252.603 273.192C253.122 273.568 253.794 273.756 254.617 273.756C255.477 273.756 256.131 273.55 256.578 273.138C257.026 272.726 257.33 272.135 257.491 271.365C257.653 270.595 257.733 269.691 257.733 268.652L257.733 266.772L263.32 266.772L263.32 267.954C263.32 271.07 262.658 273.523 261.333 275.314C260.007 277.105 257.751 278 254.563 278ZM251.125 259.035L257.733 259.035L257.733 256.242C257.733 254.952 257.662 253.869 257.518 252.991C257.375 252.114 257.079 251.451 256.632 251.004C256.184 250.556 255.477 250.332 254.51 250.332C253.579 250.332 252.871 250.547 252.388 250.977C251.904 251.407 251.573 252.132 251.394 253.153C251.215 254.173 251.125 255.579 251.125 257.37L251.125 259.035ZM285.562 278C284.344 278 283.27 277.651 282.339 276.952C281.408 276.254 280.673 275.359 280.136 274.266C279.599 273.174 279.33 272.019 279.33 270.801C279.33 268.867 279.653 267.237 280.297 265.912C280.942 264.587 281.828 263.468 282.957 262.554C284.085 261.641 285.392 260.844 286.878 260.164C288.365 259.483 289.932 258.821 291.579 258.176L291.579 255.973C291.579 254.72 291.508 253.681 291.364 252.857C291.221 252.033 290.926 251.416 290.478 251.004C290.03 250.592 289.359 250.386 288.463 250.386C287.675 250.386 287.04 250.565 286.556 250.923C286.073 251.281 285.723 251.792 285.509 252.454C285.294 253.117 285.186 253.896 285.186 254.791L285.186 256.349L279.491 256.134C279.563 252.696 280.351 250.162 281.855 248.532C283.36 246.903 285.687 246.088 288.839 246.088C291.919 246.088 294.104 246.93 295.394 248.613C296.683 250.296 297.328 252.732 297.328 255.919L297.328 270.103C297.328 271.07 297.355 272.001 297.408 272.896C297.462 273.792 297.534 274.624 297.623 275.394C297.713 276.164 297.794 276.89 297.865 277.57L292.6 277.57C292.493 276.997 292.358 276.272 292.197 275.394C292.036 274.517 291.919 273.72 291.848 273.004C291.49 274.221 290.8 275.359 289.78 276.415C288.759 277.472 287.353 278 285.562 278ZM287.819 273.057C288.392 273.057 288.929 272.896 289.43 272.574C289.932 272.252 290.38 271.884 290.773 271.473C291.167 271.061 291.436 270.729 291.579 270.479L291.579 261.668C290.684 262.169 289.842 262.671 289.054 263.172C288.266 263.674 287.577 264.202 286.986 264.757C286.395 265.312 285.929 265.939 285.589 266.637C285.249 267.336 285.079 268.133 285.079 269.028C285.079 270.282 285.311 271.267 285.777 271.983C286.243 272.699 286.923 273.057 287.819 273.057ZM302.861 277.57L302.861 246.518L308.61 246.518L308.61 249.58C309.648 248.613 310.795 247.789 312.048 247.109C313.302 246.428 314.681 246.088 316.185 246.088C317.438 246.088 318.397 246.41 319.059 247.055C319.722 247.7 320.187 248.505 320.456 249.473C320.725 250.44 320.859 251.424 320.859 252.427L320.859 277.57L315.11 277.57L315.11 254.093C315.11 252.982 314.949 252.123 314.627 251.514C314.305 250.905 313.642 250.601 312.639 250.601C311.994 250.601 311.323 250.789 310.625 251.165C309.926 251.541 309.255 251.998 308.61 252.535L308.61 277.57L302.861 277.57ZM333.645 278C331.031 278 329.079 277.042 327.789 275.126C326.5 273.21 325.855 269.959 325.855 265.375L325.855 259.358C325.855 256.994 326.052 254.8 326.446 252.777C326.84 250.753 327.584 249.132 328.676 247.915C329.768 246.697 331.371 246.088 333.484 246.088C334.523 246.088 335.472 246.321 336.331 246.786C337.191 247.252 337.961 247.825 338.642 248.505L338.642 234.054L344.39 234.054L344.39 277.57L338.642 277.57L338.642 275.582C337.961 276.299 337.218 276.881 336.412 277.328C335.606 277.776 334.684 278 333.645 278ZM335.096 273.487C335.633 273.487 336.206 273.389 336.815 273.192C337.424 272.995 338.033 272.699 338.642 272.305L338.642 251.944C338.14 251.586 337.585 251.272 336.976 251.004C336.367 250.735 335.705 250.601 334.988 250.601C333.663 250.601 332.768 251.236 332.302 252.508C331.836 253.779 331.604 255.311 331.604 257.101L331.604 265.858C331.604 267.291 331.684 268.589 331.846 269.753C332.007 270.917 332.338 271.831 332.839 272.493C333.341 273.156 334.093 273.487 335.096 273.487ZM369.64 277.57L369.64 262.205L360.239 234.054L365.88 234.054L372.541 255.06L379.096 234.054L384.791 234.054L375.443 262.205L375.443 277.57L369.64 277.57ZM393.655 278C391.363 278 389.554 277.534 388.229 276.603C386.904 275.672 385.963 274.347 385.408 272.628C384.853 270.908 384.576 268.885 384.576 266.557L384.576 257.531C384.576 255.203 384.853 253.179 385.408 251.46C385.963 249.741 386.904 248.416 388.229 247.485C389.554 246.554 391.363 246.088 393.655 246.088C395.947 246.088 397.747 246.554 399.054 247.485C400.361 248.416 401.293 249.741 401.848 251.46C402.403 253.179 402.681 255.203 402.681 257.531L402.681 266.557C402.681 268.885 402.403 270.908 401.848 272.628C401.293 274.347 400.361 275.672 399.054 276.603C397.747 277.534 395.947 278 393.655 278ZM393.655 273.756C394.766 273.756 395.545 273.433 395.992 272.789C396.44 272.144 396.708 271.293 396.798 270.237C396.888 269.18 396.932 268.079 396.932 266.933L396.932 257.209C396.932 256.027 396.888 254.917 396.798 253.878C396.708 252.839 396.44 251.989 395.992 251.326C395.545 250.663 394.766 250.332 393.655 250.332C392.545 250.332 391.757 250.663 391.291 251.326C390.825 251.989 390.548 252.839 390.458 253.878C390.369 254.917 390.324 256.027 390.324 257.209L390.324 266.933C390.324 268.079 390.369 269.18 390.458 270.237C390.548 271.293 390.825 272.144 391.291 272.789C391.757 273.433 392.545 273.756 393.655 273.756ZM412.405 278C411.187 278 410.238 277.678 409.557 277.033C408.877 276.388 408.402 275.582 408.134 274.615C407.865 273.648 407.731 272.663 407.731 271.661L407.731 246.518L413.479 246.518L413.479 269.941C413.479 271.052 413.64 271.92 413.963 272.547C414.285 273.174 414.947 273.487 415.951 273.487C416.595 273.487 417.267 273.299 417.965 272.923C418.664 272.547 419.335 272.09 419.98 271.553L419.98 246.518L425.728 246.518L425.728 277.57L419.98 277.57L419.98 274.508C418.977 275.475 417.84 276.299 416.568 276.979C415.297 277.66 413.909 278 412.405 278Z"/>
</svg>
